<svg xmlns="http://www.w3.org/2000/svg" viewBox="0 0 800 320" role="img" aria-labelledby="title desc">
  <title id="title">meta Monte Carlo 주당 모형 결과 히스토그램</title>
  <desc id="desc">1백분위부터 99백분위까지 24개 구간으로 집계한 정적 분포입니다.</desc>
  <rect width="800" height="320" fill="#fffdf8"/>
  <line x1="54" x2="764" y1="258" y2="258" stroke="#6a7280"/>
  <rect x="54" y="228.98" width="27.58" height="29.02" rx="2" fill="#253d62"><title>535.7–548.82 USD: 491개</title></rect><rect x="83.58" y="212.31" width="27.58" height="45.69" rx="2" fill="#253d62"><title>548.82–561.94 USD: 773개</title></rect><rect x="113.17" y="186.48" width="27.58" height="71.52" rx="2" fill="#253d62"><title>561.94–575.06 USD: 1210개</title></rect><rect x="142.75" y="167.51" width="27.58" height="90.49" rx="2" fill="#253d62"><title>575.06–588.18 USD: 1531개</title></rect><rect x="172.33" y="140.73" width="27.58" height="117.27" rx="2" fill="#253d62"><title>588.18–601.3 USD: 1984개</title></rect><rect x="201.92" y="110.47" width="27.58" height="147.53" rx="2" fill="#253d62"><title>601.3–614.43 USD: 2496개</title></rect><rect x="231.5" y="81.33" width="27.58" height="176.67" rx="2" fill="#253d62"><title>614.43–627.55 USD: 2989개</title></rect><rect x="261.08" y="66.55" width="27.58" height="191.45" rx="2" fill="#253d62"><title>627.55–640.67 USD: 3239개</title></rect><rect x="290.67" y="48.88" width="27.58" height="209.12" rx="2" fill="#253d62"><title>640.67–653.79 USD: 3538개</title></rect><rect x="320.25" y="43.73" width="27.58" height="214.27" rx="2" fill="#253d62"><title>653.79–666.91 USD: 3625개</title></rect><rect x="349.83" y="38" width="27.58" height="220" rx="2" fill="#253d62"><title>666.91–680.04 USD: 3722개</title></rect><rect x="379.42" y="50.77" width="27.58" height="207.23" rx="2" fill="#253d62"><title>680.04–693.16 USD: 3506개</title></rect><rect x="409" y="58.45" width="27.58" height="199.55" rx="2" fill="#253d62"><title>693.16–706.28 USD: 3376개</title></rect><rect x="438.58" y="72.99" width="27.58" height="185.01" rx="2" fill="#253d62"><title>706.28–719.4 USD: 3130개</title></rect><rect x="468.17" y="91.61" width="27.58" height="166.39" rx="2" fill="#253d62"><title>719.4–732.52 USD: 2815개</title></rect><rect x="497.75" y="117.09" width="27.58" height="140.91" rx="2" fill="#253d62"><title>732.52–745.64 USD: 2384개</title></rect><rect x="527.33" y="135.53" width="27.58" height="122.47" rx="2" fill="#253d62"><title>745.64–758.77 USD: 2072개</title></rect><rect x="556.92" y="156.1" width="27.58" height="101.9" rx="2" fill="#253d62"><title>758.77–771.89 USD: 1724개</title></rect><rect x="586.5" y="177.79" width="27.58" height="80.21" rx="2" fill="#253d62"><title>771.89–785.01 USD: 1357개</title></rect><rect x="616.08" y="196.59" width="27.58" height="61.41" rx="2" fill="#253d62"><title>785.01–798.13 USD: 1039개</title></rect><rect x="645.67" y="212.66" width="27.58" height="45.34" rx="2" fill="#253d62"><title>798.13–811.25 USD: 767개</title></rect><rect x="675.25" y="224.96" width="27.58" height="33.04" rx="2" fill="#253d62"><title>811.25–824.38 USD: 559개</title></rect><rect x="704.83" y="233.88" width="27.58" height="24.12" rx="2" fill="#253d62"><title>824.38–837.5 USD: 408개</title></rect><rect x="734.42" y="242.34" width="27.58" height="15.66" rx="2" fill="#253d62"><title>837.5–850.62 USD: 265개</title></rect>
  <text x="54" y="290" fill="#4e5867" font-size="13">535.7 USD</text>
  <text x="764" y="290" text-anchor="end" fill="#4e5867" font-size="13">850.62 USD</text>
</svg>
